{"asset":{"version":"2.0","generator":"VECTARY"},"nodes":[{"translation":[0.005339473199368328,0.00045352280168791114,-0.0037031811079507337],"scale":[0.001,0.0009999999999999998,0.0009999999999999998],"rotation":[-0.7445630124009658,0,0,0.6675521856487321],"name":"Inhabited Planet","children":[1,2,3,4,5,6,7,8,9,10,11]},{"translation":[-5.544194144856218,-74.67001479672464,83.96800124781419],"scale":[18.193069431126723,18.193069431126727,18.193069431126727],"rotation":[8.715763992105246e-33,0.7071067811865475,0.7071067811865476,8.659560562354934e-17],"name":"Ground","mesh":0},{"translation":[-4.565285797053859,-77.38984637048827,66.77047472919196],"scale":[18.193069431126723,18.193069431126727,18.193069431126727],"rotation":[8.715763992105246e-33,0.7071067811865475,0.7071067811865476,8.659560562354934e-17],"name":"Grass","mesh":1},{"translation":[-2.1590992660661685,-68.17616484757352,75.3533939451613],"scale":[18.193069431126723,18.193069431126727,18.193069431126727],"rotation":[8.715763992105246e-33,0.7071067811865475,0.7071067811865476,8.659560562354934e-17],"name":"Water","mesh":2},{"translation":[-13.168283604941365,-57.30251642610307,26.58557167887161],"scale":[18.193069431126723,18.193069431126727,18.193069431126727],"rotation":[8.715763992105246e-33,0.7071067811865475,0.7071067811865476,8.659560562354934e-17],"name":"Mountains","mesh":3},{"translation":[47.07043952546008,37.10798354387877,9.660220905545637],"scale":[18.193069431126723,18.193069431126727,18.193069431126727],"rotation":[8.715763992105246e-33,0.7071067811865475,0.7071067811865476,8.659560562354934e-17],"name":"Mountaintop","mesh":4},{"translation":[-5.321379897945924,-81.50360675306638,109.21275519723616],"scale":[18.193069431126723,18.193069431126727,18.193069431126727],"rotation":[8.715763992105246e-33,0.7071067811865475,0.7071067811865476,8.659560562354934e-17],"name":"Rocky Mountains","mesh":5},{"translation":[10.103020222097124,-16.085358933245146,147.7508626120645],"scale":[18.193069431126723,18.193069431126727,18.193069431126727],"rotation":[8.715763992105246e-33,0.7071067811865475,0.7071067811865476,8.659560562354934e-17],"name":"Volcano","mesh":6},{"translation":[4.368606264935279,-7.172166887244227,156.31821647329235],"scale":[18.193069431126723,18.193069431126727,18.193069431126727],"rotation":[8.715763992105246e-33,0.7071067811865475,0.7071067811865476,8.659560562354934e-17],"name":"Lava","mesh":7},{"translation":[19.895594356168708,18.7946681146628,61.463985694511315],"scale":[18.193069431126723,18.193069431126723,18.193069431126723],"rotation":[0,0,1,6.123233995736766e-17],"name":"City","mesh":8},{"translation":[-21.638293815310043,-24.7573332540958,10.588945786249875],"scale":[18.193069431126723,18.193069431126723,18.193069431126723],"rotation":[0,0,1,6.123233995736766e-17],"name":"Forest","mesh":9},{"translation":[13.826503694023785,4.8531919441655536,159.66876093826946],"scale":[18.193069431126723,18.193069431126723,18.193069431126723],"rotation":[0,0,0,1],"name":"Smoke","mesh":10}],"materials":[{"pbrMetallicRoughness":{"baseColorFactor":[0.8000000715255736,0.49283611774444575,0.1568469852209091,1],"metallicFactor":0,"roughnessFactor":0.5},"name":"Sand","emissiveFactor":[0,0,0],"extensions":{},"alphaMode":"OPAQUE","doubleSided":false},{"pbrMetallicRoughness":{"baseColorFactor":[0.21551643311977386,0.3505557179450988,0.06392350792884827,1],"metallicFactor":0,"roughnessFactor":0.5},"name":"Grass","emissiveFactor":[0,0,0],"extensions":{},"alphaMode":"OPAQUE","doubleSided":false},{"pbrMetallicRoughness":{"baseColorFactor":[0.13965697586536405,0.2807356715202331,0.8000000715255736,1],"metallicFactor":0,"roughnessFactor":0.4000000059604645},"name":"Water","emissiveFactor":[0,0,0],"extensions":{},"alphaMode":"OPAQUE","doubleSided":false},{"pbrMetallicRoughness":{"baseColorFactor":[0.3505557179450988,0.3505557179450988,0.3505557179450988,1],"metallicFactor":0,"roughnessFactor":0.5},"name":"Rock","emissiveFactor":[0,0,0],"extensions":{},"alphaMode":"OPAQUE","doubleSided":false},{"pbrMetallicRoughness":{"baseColorFactor":[1,1,1,1],"metallicFactor":0,"roughnessFactor":0.5},"name":"Grey material","emissiveFactor":[0,0,0],"extensions":{},"alphaMode":"OPAQUE","doubleSided":false},{"pbrMetallicRoughness":{"baseColorFactor":[0.8000000715255736,0.20713056623935697,0.03941155970096587,1],"metallicFactor":0,"roughnessFactor":0.5},"name":"Rocks","emissiveFactor":[0,0,0],"extensions":{},"alphaMode":"OPAQUE","doubleSided":false},{"pbrMetallicRoughness":{"baseColorFactor":[0.035205729305744164,0.0131008131429553,0.01262848824262619,1],"metallicFactor":0,"roughnessFactor":0.5},"name":"Volcanic rocks","emissiveFactor":[0,0,0],"extensions":{},"alphaMode":"OPAQUE","doubleSided":false},{"pbrMetallicRoughness":{"baseColorFactor":[1,0.03561436968491877,0.03561436968491877,1],"metallicFactor":1,"roughnessFactor":1},"name":"Lava","emissiveFactor":[1,0.015208903700113297,0.0069984328001737595],"extensions":{},"alphaMode":"OPAQUE","doubleSided":false},{"pbrMetallicRoughness":{"baseColorFactor":[0.12823931872844693,0.12823931872844693,0.12823931872844693,1],"metallicFactor":0,"roughnessFactor":0.5},"name":"Metal","emissiveFactor":[0,0,0],"extensions":{},"alphaMode":"OPAQUE","doubleSided":false},{"pbrMetallicRoughness":{"baseColorFactor":[0.5215676426887512,0.8000000715255736,0.17338857054710388,1],"metallicFactor":0,"roughnessFactor":0.5},"name":"Trees","emissiveFactor":[0,0,0],"extensions":{},"alphaMode":"OPAQUE","doubleSided":false},{"pbrMetallicRoughness":{"baseColorFactor":[0.5479935021969718,0.5479935021969718,0.5479935021969718,1],"metallicFactor":0,"roughnessFactor":0.2},"name":"Fume","emissiveFactor":[0,0,0],"extensions":{},"alphaMode":"OPAQUE","doubleSided":false}],"meshes":[{"primitives":[{"mode":4,"attributes":{"POSITION":1,"NORMAL":2,"TEXCOORD_0":3},"material":0,"indices":0}]},{"primitives":[{"mode":4,"attributes":{"POSITION":5,"NORMAL":6,"TEXCOORD_0":7},"material":1,"indices":4}]},{"primitives":[{"mode":4,"attributes":{"POSITION":9,"NORMAL":10,"TEXCOORD_0":11},"material":2,"indices":8}]},{"primitives":[{"mode":4,"attributes":{"POSITION":13,"NORMAL":14,"TEXCOORD_0":15},"material":3,"indices":12}]},{"primitives":[{"mode":4,"attributes":{"POSITION":17,"NORMAL":18,"TEXCOORD_0":19},"material":4,"indices":16}]},{"primitives":[{"mode":4,"attributes":{"POSITION":21,"NORMAL":22,"TEXCOORD_0":23},"material":5,"indices":20}]},{"primitives":[{"mode":4,"attributes":{"POSITION":25,"NORMAL":26,"TEXCOORD_0":27},"material":6,"indices":24}]},{"primitives":[{"mode":4,"attributes":{"POSITION":29,"NORMAL":30,"TEXCOORD_0":31},"material":7,"indices":28}]},{"primitives":[{"mode":4,"attributes":{"POSITION":33,"NORMAL":34,"TEXCOORD_0":35},"material":8,"indices":32}]},{"primitives":[{"mode":4,"attributes":{"POSITION":37,"NORMAL":38,"TEXCOORD_0":39},"material":9,"indices":36}]},{"primitives":[{"mode":4,"attributes":{"POSITION":41,"NORMAL":42,"TEXCOORD_0":43},"material":10,"indices":40}]}],"accessors":[{"bufferView":0,"byteOffset":0,"componentType":5125,"count":3264,"type":"SCALAR"},{"bufferView":1,"byteOffset":0,"componentType":5126,"count":1289,"max":[3.897838592529297,4.233161926269531,8.4132080078125],"min":[-3.897838830947876,-4.233161449432373,-7.328058160283035e-8],"type":"VEC3"},{"bufferView":2,"byteOffset":0,"componentType":5126,"count":1289,"type":"VEC3"},{"bufferView":3,"byteOffset":0,"componentType":5126,"count":1289,"type":"VEC2"},{"bufferView":4,"byteOffset":0,"componentType":5125,"count":1710,"type":"SCALAR"},{"bufferView":5,"byteOffset":0,"componentType":5126,"count":542,"max":[4,3.670105218887329,8.562705993652344],"min":[-4,-3.67010498046875,-1.7223364068286173e-7],"type":"VEC3"},{"bufferView":6,"byteOffset":0,"componentType":5126,"count":542,"type":"VEC3"},{"bufferView":7,"byteOffset":0,"componentType":5126,"count":542,"type":"VEC2"},{"bufferView":8,"byteOffset":0,"componentType":5125,"count":1458,"type":"SCALAR"},{"bufferView":9,"byteOffset":0,"componentType":5126,"count":550,"max":[3.867741346359253,4.0565595626831055,7.275799751281738],"min":[-3.867741584777832,-4.0565595626831055,-3.156927874670146e-8],"type":"VEC3"},{"bufferView":10,"byteOffset":0,"componentType":5126,"count":550,"type":"VEC3"},{"bufferView":11,"byteOffset":0,"componentType":5126,"count":550,"type":"VEC2"},{"bufferView":12,"byteOffset":0,"componentType":5125,"count":906,"type":"SCALAR"},{"bufferView":13,"byteOffset":0,"componentType":5126,"count":387,"max":[3.51192569732666,1.2022886276245117,5.865253448486328],"min":[-3.51192569732666,-1.2022886276245117,3.305409634890566e-8],"type":"VEC3"},{"bufferView":14,"byteOffset":0,"componentType":5126,"count":387,"type":"VEC3"},{"bufferView":15,"byteOffset":0,"componentType":5126,"count":387,"type":"VEC2"},{"bufferView":16,"byteOffset":0,"componentType":5125,"count":54,"type":"SCALAR"},{"bufferView":17,"byteOffset":0,"componentType":5126,"count":35,"max":[0.21806220710277557,0.23053501546382904,0.3026891052722931],"min":[-0.2180621474981308,-0.23053503036499023,1.1220071094442119e-8],"type":"VEC3"},{"bufferView":18,"byteOffset":0,"componentType":5126,"count":35,"type":"VEC3"},{"bufferView":19,"byteOffset":0,"componentType":5126,"count":35,"type":"VEC2"},{"bufferView":20,"byteOffset":0,"componentType":5125,"count":1539,"type":"SCALAR"},{"bufferView":21,"byteOffset":0,"componentType":5126,"count":638,"max":[3.0865907669067383,2.001504421234131,8.925165176391602],"min":[-3.0865907669067383,-2.001504421234131,1.6361497046091245e-7],"type":"VEC3"},{"bufferView":22,"byteOffset":0,"componentType":5126,"count":638,"type":"VEC3"},{"bufferView":23,"byteOffset":0,"componentType":5126,"count":638,"type":"VEC2"},{"bufferView":24,"byteOffset":0,"componentType":5125,"count":855,"type":"SCALAR"},{"bufferView":25,"byteOffset":0,"componentType":5126,"count":364,"max":[1.4075531959533691,0.7299628257751465,2.386582374572754],"min":[-1.4075530767440796,-0.729962170124054,2.596533477117191e-8],"type":"VEC3"},{"bufferView":26,"byteOffset":0,"componentType":5126,"count":364,"type":"VEC3"},{"bufferView":27,"byteOffset":0,"componentType":5126,"count":364,"type":"VEC2"},{"bufferView":28,"byteOffset":0,"componentType":5125,"count":105,"type":"SCALAR"},{"bufferView":29,"byteOffset":0,"componentType":5126,"count":33,"max":[0.5791680216789246,0.10904234647750854,1.0679329633712769],"min":[-0.5791679620742798,-0.10904184728860855,-9.169007775255977e-10],"type":"VEC3"},{"bufferView":30,"byteOffset":0,"componentType":5126,"count":33,"type":"VEC3"},{"bufferView":31,"byteOffset":0,"componentType":5126,"count":33,"type":"VEC2"},{"bufferView":32,"byteOffset":0,"componentType":5125,"count":3720,"type":"SCALAR"},{"bufferView":33,"byteOffset":0,"componentType":5126,"count":2042,"max":[3.863039493560791,3.9170010089874268,3.8281633853912354],"min":[-3.863039255142212,-3.917001247406006,-7.28062090615822e-8],"type":"VEC3"},{"bufferView":34,"byteOffset":0,"componentType":5126,"count":2042,"type":"VEC3"},{"bufferView":35,"byteOffset":0,"componentType":5126,"count":2042,"type":"VEC2"},{"bufferView":36,"byteOffset":0,"componentType":5125,"count":8580,"type":"SCALAR"},{"bufferView":37,"byteOffset":0,"componentType":5126,"count":5200,"max":[3.7672505378723145,3.58925724029541,5.120710849761963],"min":[-3.7672502994537354,-3.58925724029541,2.4004767951169015e-8],"type":"VEC3"},{"bufferView":38,"byteOffset":0,"componentType":5126,"count":5200,"type":"VEC3"},{"bufferView":39,"byteOffset":0,"componentType":5126,"count":5200,"type":"VEC2"},{"bufferView":40,"byteOffset":0,"componentType":5125,"count":2904,"type":"SCALAR"},{"bufferView":41,"byteOffset":0,"componentType":5126,"count":1072,"max":[0.817004919052124,0.701525092124939,1.4295207262039185],"min":[-0.817004919052124,-0.701525092124939,1.0750769163792029e-8],"type":"VEC3"},{"bufferView":42,"byteOffset":0,"componentType":5126,"count":1072,"type":"VEC3"},{"bufferView":43,"byteOffset":0,"componentType":5126,"count":1072,"type":"VEC2"}],"bufferViews":[{"buffer":0,"byteOffset":0,"byteLength":13056,"target":34963},{"buffer":0,"byteOffset":13056,"byteLength":15468,"target":34962},{"buffer":0,"byteOffset":28524,"byteLength":15468,"target":34962},{"buffer":0,"byteOffset":43992,"byteLength":10312,"target":34962},{"buffer":0,"byteOffset":54304,"byteLength":6840,"target":34963},{"buffer":0,"byteOffset":61144,"byteLength":6504,"target":34962},{"buffer":0,"byteOffset":67648,"byteLength":6504,"target":34962},{"buffer":0,"byteOffset":74152,"byteLength":4336,"target":34962},{"buffer":0,"byteOffset":78488,"byteLength":5832,"target":34963},{"buffer":0,"byteOffset":84320,"byteLength":6600,"target":34962},{"buffer":0,"byteOffset":90920,"byteLength":6600,"target":34962},{"buffer":0,"byteOffset":97520,"byteLength":4400,"target":34962},{"buffer":0,"byteOffset":101920,"byteLength":3624,"target":34963},{"buffer":0,"byteOffset":105544,"byteLength":4644,"target":34962},{"buffer":0,"byteOffset":110188,"byteLength":4644,"target":34962},{"buffer":0,"byteOffset":114832,"byteLength":3096,"target":34962},{"buffer":0,"byteOffset":117928,"byteLength":216,"target":34963},{"buffer":0,"byteOffset":118144,"byteLength":420,"target":34962},{"buffer":0,"byteOffset":118564,"byteLength":420,"target":34962},{"buffer":0,"byteOffset":118984,"byteLength":280,"target":34962},{"buffer":0,"byteOffset":119264,"byteLength":6156,"target":34963},{"buffer":0,"byteOffset":125420,"byteLength":7656,"target":34962},{"buffer":0,"byteOffset":133076,"byteLength":7656,"target":34962},{"buffer":0,"byteOffset":140732,"byteLength":5104,"target":34962},{"buffer":0,"byteOffset":145836,"byteLength":3420,"target":34963},{"buffer":0,"byteOffset":149256,"byteLength":4368,"target":34962},{"buffer":0,"byteOffset":153624,"byteLength":4368,"target":34962},{"buffer":0,"byteOffset":157992,"byteLength":2912,"target":34962},{"buffer":0,"byteOffset":160904,"byteLength":420,"target":34963},{"buffer":0,"byteOffset":161324,"byteLength":396,"target":34962},{"buffer":0,"byteOffset":161720,"byteLength":396,"target":34962},{"buffer":0,"byteOffset":162116,"byteLength":264,"target":34962},{"buffer":0,"byteOffset":162380,"byteLength":14880,"target":34963},{"buffer":0,"byteOffset":177260,"byteLength":24504,"target":34962},{"buffer":0,"byteOffset":201764,"byteLength":24504,"target":34962},{"buffer":0,"byteOffset":226268,"byteLength":16336,"target":34962},{"buffer":0,"byteOffset":242604,"byteLength":34320,"target":34963},{"buffer":0,"byteOffset":276924,"byteLength":62400,"target":34962},{"buffer":0,"byteOffset":339324,"byteLength":62400,"target":34962},{"buffer":0,"byteOffset":401724,"byteLength":41600,"target":34962},{"buffer":0,"byteOffset":443324,"byteLength":11616,"target":34963},{"buffer":0,"byteOffset":454940,"byteLength":12864,"target":34962},{"buffer":0,"byteOffset":467804,"byteLength":12864,"target":34962},{"buffer":0,"byteOffset":480668,"byteLength":8576,"target":34962}],"scene":0,"scenes":[{"nodes":[0],"name":"planet-test"}],"extensionsUsed":["KHR_texture_transform"],"buffers":[{"byteLength":489244,"uri":"planet-test.bin"}]}